:FULLY-SPECIFIED
:FORCE-ALL-JOINTS-BE-3DOF
:DEGREES
1631
root -14.8391 14.5691 19.3658 -15.9591 -71.0514 16.1791
lfemur 10.3795 -11.5481 -12.2914
ltibia 30.8025 -0 0
lfoot -21.634 29.2406 0.00619669
ltoes -43.4201 0 0
rfemur -52.5674 -14.7341 8.08445
rtibia 65.5496 -0 0
rfoot -9.63432 10.4344 0.00192917
rtoes 2.53542 -0 0
lowerback 12.9361 4.00167 -7.65502
upperback -0.574538 4.09082 -0.292507
thorax -8.42442 2.29224 3.16273
lowerneck 1.28447 -13.0906 -12.8362
upperneck 3.24453 -17.988 10.544
head 2.86439 -9.01595 4.46269
lclavicle 3.23522e-14 -3.57812e-15 0
lhumerus -72.0664 -17.0666 104.426
lradius 104.162 -0 0
lwrist 54.75 0 0
lhand -13.9598 48.7367 0.208421
lfingers 7.12502 -0 0
lthumb 12.1434 78.0388 0.0857832
rclavicle 3.23522e-14 -3.57812e-15 0
rhumerus 46.6038 -4.03018 -56.0535
rradius 19.0784 -0 0
rwrist 22.0317 0 0
rhand -18.1513 -35.825 0.0211536
rfingers 7.12502 -0 0
rthumb 8.12428 -65.6463 0.0207239
1632
root -14.8621 14.5686 19.3706 -15.94 -71.0805 16.2533
lfemur 10.5505 -11.5899 -12.3404
ltibia 30.5156 -0 0
lfoot -21.5785 29.3089 0.00527343
ltoes -43.4028 0 0
rfemur -52.6408 -14.7534 8.08796
rtibia 65.6744 -0 0
rfoot -9.80331 10.4274 0.00164172
rtoes 2.54162 -0 0
lowerback 12.9201 3.99808 -7.65603
upperback -0.59039 4.08807 -0.28226
thorax -8.43314 2.29209 3.17515
lowerneck 1.31841 -13.0953 -12.8375
upperneck 3.22967 -17.9975 10.5502
head 2.85628 -9.02159 4.46676
lclavicle 3.23522e-14 -3.57812e-15 0
lhumerus -72.0848 -17.1204 104.445
lradius 104.157 -0 0
lwrist 54.8124 0 0
lhand -14.7325 48.5734 0.17729
lfingers 7.12502 -0 0
lthumb 11.4024 77.9687 0.0729738
rclavicle 3.23522e-14 -3.57812e-15 0
rhumerus 46.6651 -4.05856 -56.1347
rradius 19.0533 -0 0
rwrist 22.2156 0 0
rhand -18.0745 -35.6566 0.0180015
rfingers 7.12502 -0 0
rthumb 8.19838 -65.4753 0.0176358
1633
root -14.8851 14.5681 19.3753 -15.9225 -71.1073 16.3218
lfemur 10.7084 -11.6284 -12.3857
ltibia 30.2508 -0 0
lfoot -21.5273 29.3719 0.00436246
ltoes -43.3869 0 0
rfemur -52.7086 -14.7711 8.09121
rtibia 65.7897 -0 0
rfoot -9.9593 10.421 0.00135809
rtoes 2.54735 -0 0
lowerback 12.9053 3.99477 -7.65696
upperback -0.605024 4.08554 -0.2728
thorax -8.4412 2.29196 3.18662
lowerneck 1.34975 -13.0996 -12.8388
upperneck 3.21596 -18.0062 10.5559
head 2.8488 -9.02679 4.47052
lclavicle 3.23522e-14 -3.57812e-15 0
lhumerus -72.1017 -17.1702 104.462
lradius 104.152 -0 0
lwrist 54.87 0 0
lhand -15.4457 48.423 0.1466
lfingers 7.12502 -0 0
lthumb 10.7184 77.904 0.0603446
rclavicle 3.23522e-14 -3.57812e-15 0
rhumerus 46.7218 -4.08469 -56.2097
rradius 19.0301 -0 0
rwrist 22.3854 0 0
rhand -18.0036 -35.5011 0.0148915
rfingers 7.12502 -0 0
rthumb 8.26678 -65.3176 0.014589
1634
root -14.9081 14.5676 19.3801 -15.9067 -71.1318 16.3843
lfemur 10.852 -11.6634 -12.4271
ltibia 30.01 -0 0
lfoot -21.4807 29.4293 0.00348502
ltoes -43.3724 0 0
rfemur -52.7703 -14.7872 8.0942
rtibia 65.8945 -0 0
rfoot -10.1012 10.4152 0.00108492
rtoes 2.55256 -0 0
lowerback 12.8918 3.99175 -7.6578
upperback -0.618333 4.08324 -0.264196
thorax -8.44853 2.29185 3.19705
lowerneck 1.37825 -13.1035 -12.8399
upperneck 3.20349 -18.0142 10.561
head 2.84199 -9.03153 4.47393
lclavicle 3.23522e-14 -3.57812e-15 0
lhumerus -72.1172 -17.2154 104.478
lradius 104.148 -0 0
lwrist 54.9224 0 0
lhand -16.0943 48.2866 0.117065
lfingers 7.12502 -0 0
lthumb 10.0963 77.8454 0.0481895
rclavicle 3.23522e-14 -3.57812e-15 0
rhumerus 46.7733 -4.10839 -56.2779
rradius 19.0089 -0 0
rwrist 22.5399 0 0
rhand -17.9392 -35.3597 0.0118961
rfingers 7.12502 -0 0
rthumb 8.32898 -65.1741 0.0116545
1635
root -14.9311 14.5671 19.3848 -15.8926 -71.1536 16.44
lfemur 10.9802 -11.6944 -12.4641
ltibia 29.795 -0 0
lfoot -21.4391 29.4804 0.00266255
ltoes -43.3594 0 0
rfemur -52.8253 -14.8016 8.09687
rtibia 65.9881 -0 0
rfoot -10.2278 10.4099 0.000828867
rtoes 2.55721 -0 0
lowerback 12.8798 3.98906 -7.65855
upperback -0.630212 4.08118 -0.256517
thorax -8.45507 2.29174 3.20635
lowerneck 1.40368 -13.1071 -12.8408
upperneck 3.19235 -18.0213 10.5657
head 2.83591 -9.03575 4.47698
lclavicle 3.23522e-14 -3.57812e-15 0
lhumerus -72.131 -17.2557 104.492
lradius 104.144 -0 0
lwrist 54.9691 0 0
lhand -16.6731 48.1651 0.0894024
lfingers 7.12502 -0 0
lthumb 9.54112 77.7932 0.0368039
rclavicle 3.23522e-14 -3.57812e-15 0
rhumerus 46.8194 -4.12949 -56.3388
rradius 18.9901 -0 0
rwrist 22.6777 0 0
rhand -17.8817 -35.2335 0.00908846
rfingers 7.12502 -0 0
rthumb 8.38449 -65.046 0.00890384
1636
root -14.9541 14.5665 19.3896 -15.8803 -71.1726 16.4886
lfemur 11.0919 -11.7214 -12.4963
ltibia 29.6079 -0 0
lfoot -21.4029 29.525 0.00191625
ltoes -43.3481 0 0
rfemur -52.8732 -14.8141 8.09921
rtibia 66.0695 -0 0
rfoot -10.338 10.4054 0.000596532
rtoes 2.56126 -0 0
lowerback 12.8693 3.98671 -7.65921
upperback -0.640554 4.0794 -0.249831
thorax -8.46076 2.29165 3.21445
lowerneck 1.42583 -13.1101 -12.8417
upperneck 3.18266 -18.0275 10.5697
head 2.83062 -9.03943 4.47964
lclavicle 3.23522e-14 -3.57812e-15 0
lhumerus -72.143 -17.2909 104.504
lradius 104.138 -0 0
lwrist 55.0098 0 0
lhand -17.1769 48.0596 0.0643205
lfingers 7.12502 -0 0
lthumb 9.05777 77.7478 0.0264796
rclavicle 3.23522e-14 -3.57812e-15 0
rhumerus 46.8595 -4.14782 -56.3919
rradius 18.9737 -0 0
rwrist 22.7977 0 0
rhand -17.8316 -35.1237 0.00654091
rfingers 7.12502 -0 0
rthumb 8.43282 -64.9345 0.00640803
1637
root -14.9771 14.566 19.3943 -15.8701 -71.1885 16.5295
lfemur 11.1858 -11.7441 -12.5235
ltibia 29.4505 -0 0
lfoot -21.3725 29.5624 0.0012667
ltoes -43.3386 0 0
rfemur -52.9135 -14.8246 8.10119
rtibia 66.138 -0 0
rfoot -10.4308 10.4015 0.000394322
rtoes 2.56671 -0 0
lowerback 12.8605 3.98474 -7.65976
upperback -0.649254 4.07789 -0.244206
thorax -8.46555 2.29158 3.22127
lowerneck 1.44446 -13.1127 -12.8424
upperneck 3.17451 -18.0327 10.5731
head 2.82617 -9.04252 4.48188
lclavicle 3.23522e-14 -3.57812e-15 0
lhumerus -72.1532 -17.3204 104.515
lradius 104.136 -0 0
lwrist 55.044 0 0
lhand -17.6007 47.971 0.0425047
lfingers 7.12502 -0 0
lthumb 8.65119 77.7097 0.0174991
rclavicle 3.23522e-14 -3.57812e-15 0
rhumerus 46.8932 -4.16321 -56.4365
rradius 18.9599 -0 0
rwrist 22.8986 0 0
rhand -17.7895 -35.0313 0.00432369
rfingers 7.12502 -0 0
rthumb 8.47346 -64.8408 0.00423585
1638
root -15 14.5655 19.3991 -15.8619 -71.2013 16.5622
lfemur 11.2609 -11.7622 -12.5453
ltibia 29.3247 -0 0
lfoot -21.3481 29.5924 0.000733413
ltoes -43.331 0 0
rfemur -52.9457 -14.833 8.10278
rtibia 66.1928 -0 0
rfoot -10.5049 10.3985 0.000228309
rtoes 2.56856 -0 0
lowerback 12.8535 3.98317 -7.6602
upperback -0.656205 4.07669 -0.239712
thorax -8.46938 2.29152 3.22671
lowerneck 1.45934 -13.1147 -12.843
upperneck 3.16799 -18.0368 10.5758
head 2.82262 -9.04499 4.48366
lclavicle 3.23522e-14 -3.57812e-15 0
lhumerus -72.1613 -17.344 104.523
lradius 104.133 -0 0
lwrist 55.0714 0 0
lhand -17.9393 47.9004 0.0246038
lfingers 7.12502 -0 0
lthumb 8.32635 77.6793 0.0101296
rclavicle 3.23522e-14 -3.57812e-15 0
rhumerus 46.9202 -4.17549 -56.4722
rradius 18.9489 -0 0
rwrist 22.9793 0 0
rhand -17.7559 -34.9575 0.00250337
rfingers 7.12502 -0 0
rthumb 8.50593 -64.7658 0.00245251
1639
root -15.023 14.565 19.4038 -15.8559 -71.2107 16.5862
lfemur 11.316 -11.7754 -12.5612
ltibia 29.2325 -0 0
lfoot -21.3303 29.6143 0.000334351
ltoes -43.3255 0 0
rfemur -52.9693 -14.8392 8.10395
rtibia 66.2329 -0 0
rfoot -10.5592 10.3962 0.000104082
rtoes 2.57102 -0 0
lowerback 12.8484 3.98201 -7.66052
upperback -0.661301 4.07582 -0.236417
thorax -8.47219 2.29148 3.23071
lowerneck 1.47026 -13.1163 -12.8434
upperneck 3.16321 -18.0399 10.5778
head 2.81931 -9.0473 4.48532
lclavicle 3.23522e-14 -3.57812e-15 0
lhumerus -72.1672 -17.3613 104.529
lradius 104.133 -0 0
lwrist 55.0915 0 0
lhand -18.1875 47.8486 0.0112143
lfingers 7.12502 -0 0
lthumb 8.08819 77.657 0.00461714
rclavicle 3.23522e-14 -3.57812e-15 0
rhumerus 46.94 -4.18448 -56.4983
rradius 18.9408 -0 0
rwrist 23.0384 0 0
rhand -17.7312 -34.9034 0.00114124
rfingers 7.12502 -0 0
rthumb 8.52973 -64.7109 0.00111805
